# xmcd CD database file
#
# Track frame offsets:
#	150
#	19604
#	42708
#	62992
#	93441
#	102344
#	128999
#	155872
#	220378
#
# Disc length: 4523 seconds
#
# Revision: 0
# Processed by: cddbd v1.4PL0 Copyright (c) Steve Scherf et al.
# Submitted via: CDex 1.50
#
DISCID=8611a909
DTITLE=Misinterprotato - Now For the Free
DYEAR=2003
DGENRE=Jazz
TTITLE0=Motion
TTITLE1=Waiting
TTITLE2=Gnip Gnop
TTITLE3=Shorter than some
TTITLE4=Domino vs. the Powerful Owl
TTITLE5=Not Knowing What to Do Next
TTITLE6=Duckdive
TTITLE7=Places
TTITLE8=Live Video Datatrack - Do Not Rip
EXTD=YEAR: 2003
EXTT0=
EXTT1=
EXTT2=
EXTT3=
EXTT4=
EXTT5=
EXTT6=
EXTT7=
EXTT8=
PLAYORDER=
